<?xml version="1.0" encoding="UTF-8"?>
<svg data-name="Layer 1" xmlns="http://www.w3.org/2000/svg" viewBox="0 0 125.93 64" width="78" height="40">
  <defs>
    <style>
      .cls-1 {
        fill: #a5bed4;
      }

      .cls-2 {
        fill: #546a9b;
      }
    </style>
  </defs>
  <path class="cls-1" d="M38.73,24.07l-1.87,2.63c-.35.5-1.01.66-1.56.4l-21.86-10.63c-.34-.16-.15-.67.21-.58l24.36,6.26c.84.22,1.21,1.21.7,1.92Z"/>
  <path class="cls-2" d="M57.38,43.89l-31.11,18.73c-.61.37-1.4.15-1.74-.48L.15,16.41c-.57-1.06.56-2.23,1.64-1.7l34.27,16.67,21.22,10.33c.89.43.94,1.67.1,2.18Z"/>
  <path class="cls-2" d="M61.26.77v37.74c0,.57-.59.94-1.1.69l-19.89-9.68h0c-.43-.21-.56-.75-.29-1.13L59.87.32c.43-.61,1.39-.3,1.39.44Z"/>
  <path class="cls-2" d="M61.26,47.85v14.9c0,.69-.56,1.24-1.24,1.24h-24.75c-1.26,0-1.72-1.66-.64-2.31l24.75-14.9c.83-.5,1.88.1,1.88,1.06Z"/>
  <path class="cls-1" d="M85.77,29.52l-19.89,9.68c-.51.25-1.1-.12-1.1-.69V.77c0-.75.96-1.05,1.39-.44l15.52,21.9.38.55s.04.05.06.07l3.92,5.53c.27.39.14.92-.29,1.13Z"/>
  <path class="cls-2" d="M90.77,64h-24.75c-.69,0-1.24-.56-1.24-1.24v-14.9c0-.97,1.05-1.56,1.88-1.06l24.75,14.9c1.08.65.62,2.31-.64,2.31Z"/>
  <path class="cls-2" d="M112.69,16.42l-21.96,10.68c-.55.27-1.21.1-1.56-.4l-1.88-2.65c-.5-.71-.14-1.7.7-1.92l24.47-6.29c.36-.09.55.42.21.58Z"/>
  <path class="cls-1" d="M125.78,16.46l-24.28,45.68c-.33.63-1.13.85-1.74.48l-31.1-18.73c-.84-.51-.79-1.75.1-2.18l21.22-10.33,34.16-16.62c1.08-.53,2.2.64,1.64,1.7Z"/>
</svg>
