<?xml version="1.0" encoding="UTF-8"?>
<svg id="Layer_1" data-name="Layer 1" xmlns="http://www.w3.org/2000/svg" viewBox="0 0 405.65 382.98">
  <defs>
    <style>
      .cls-1 {
        fill: #112b44;
        font-family: Montserrat-Bold, Montserrat;
        font-size: 72px;
        font-weight: 700;
      }

      .cls-2 {
        letter-spacing: 0em;
      }

      .cls-3 {
        fill: #a5bed4;
      }

      .cls-4 {
        fill: #546a9b;
      }

      .cls-5 {
        letter-spacing: 0em;
      }

      .cls-6 {
        fill: #ecf0f1;
      }

      .cls-7 {
        letter-spacing: 0em;
      }
    </style>
  </defs>
  <path class="cls-3" d="M124.77,77.55l-6.01,8.48c-1.13,1.6-3.25,2.14-5.01,1.28L43.33,53.06c-1.08-.53-.48-2.17.69-1.87l78.48,20.17c2.72.7,3.89,3.9,2.27,6.19Z"/>
  <path class="cls-4" d="M184.83,141.38l-100.2,60.35c-1.96,1.18-4.52.48-5.59-1.54L.49,52.86c-1.82-3.42,1.79-7.17,5.28-5.48l110.39,53.7,68.37,33.27c2.85,1.39,3.03,5.39.31,7.02Z"/>
  <path class="cls-4" d="M197.34,2.47v121.57c0,1.82-1.91,3.01-3.54,2.22l-64.08-31.17h0c-1.37-.66-1.82-2.4-.94-3.65L192.87,1.04c1.39-1.96,4.48-.98,4.48,1.43Z"/>
  <path class="cls-4" d="M197.34,154.14v48.01c0,2.21-1.79,4-4,4h-79.72c-4.05,0-5.54-5.34-2.06-7.43l79.72-48.01c2.67-1.61,6.06.31,6.06,3.43Z"/>
  <path class="cls-3" d="M276.28,95.09l-64.06,31.17c-1.64.8-3.55-.4-3.55-2.22V2.47c0-2.4,3.09-3.39,4.48-1.43l50,70.56,1.24,1.77c.06.08.13.16.19.24l12.63,17.83c.88,1.24.44,2.98-.93,3.64Z"/>
  <path class="cls-4" d="M292.4,206.16h-79.72c-2.21,0-4-1.79-4-4v-48.01c0-3.11,3.4-5.03,6.06-3.43l79.72,48.01c3.47,2.09,1.99,7.43-2.06,7.43Z"/>
  <path class="cls-4" d="M362.99,52.91l-70.72,34.4c-1.76.86-3.88.31-5.01-1.29l-6.05-8.55c-1.62-2.29-.45-5.49,2.27-6.19l78.83-20.25c1.17-.3,1.77,1.34.69,1.87Z"/>
  <path class="cls-3" d="M405.17,53.04l-78.21,147.13c-1.08,2.02-3.63,2.73-5.6,1.55l-100.19-60.34c-2.72-1.64-2.54-5.63.31-7.02l68.36-33.27,110.04-53.53c3.48-1.69,7.1,2.06,5.28,5.47Z"/>
  <g>
    <path class="cls-6" d="M20.66,287.22c28.53-17.03,60.79-28.3,94.1-30.42,33.71-2.54,68.02,6.41,97.85,21.4,21.42,10.18,42.14,22.89,65.9,26.06,31.48,4.34,62.65-8.7,87.33-27.73,6.44-4.89,12.65-10.17,18.69-15.71,0,0,.47.42.47.42-20.71,27.54-50.25,50.19-85.12,55.19-35.9,5.26-62.73-9.96-93.66-24.84-17.88-8.57-36.35-15.69-55.82-19.35-31.27-6.03-63.8-3.36-94.5,4.67-4.65,1.11-10.06,2.76-14.64,4.08-2.82.91-6.11,1.98-8.72,2.81-3.89,1.25-7.7,2.71-11.61,3.98l-.27-.57h0Z"/>
    <path class="cls-6" d="M41.34,309.06c33.82-20.35,74.99-30.54,114.11-22.25,13.06,2.69,25.77,7.17,37.83,12.66,17.9,8.06,33.97,17.76,51.78,25.2,30.08,12.99,60.75,12.52,91.35,1.28,0,0,.28.56.28.56-11,6.9-23.43,11.77-36.45,14.36-19.72,4.03-40.55,1.68-59.38-5.19-24.35-8.61-46.33-22.57-70.44-31.03-31.45-11.62-64.04-11.84-96.51-4.32-6,1.41-12.62,3.08-18.5,4.93-4.43,1.26-9.41,2.98-13.82,4.37,0,0-.26-.57-.26-.57h0Z"/>
  </g>
  <text class="cls-1" transform="translate(13.22 277.43)"><tspan x="0" y="0">de</tspan><tspan class="cls-5" x="95.25" y="0">c</tspan><tspan class="cls-2" x="137.52" y="0">kha</tspan><tspan class="cls-7" x="279.21" y="0">n</tspan><tspan x="329.4" y="0">d</tspan></text>
</svg>